<?xml version="1.0" standalone="no"?>
<!DOCTYPE svg PUBLIC "-//W3C//DTD SVG 20010904//EN"
 "http://www.w3.org/TR/2001/REC-SVG-20010904/DTD/svg10.dtd">
<svg version="1.0" xmlns="http://www.w3.org/2000/svg"
 width="984.000000pt" height="984.000000pt" viewBox="0 0 984.000000 984.000000"
 preserveAspectRatio="xMidYMid meet">
<metadata>
Created by potrace 1.14, written by Peter Selinger 2001-2017
</metadata>
<g transform="translate(0.000000,984.000000) scale(0.100000,-0.100000)"
fill="#000000" stroke="none">
<path d="M4560 7948 c0 -29 -1 -60 -1 -68 0 -8 1 -46 1 -85 1 -38 0 -74 -1
-80 -1 -5 -1 -14 0 -18 2 -13 3 -210 1 -222 -1 -5 -1 -30 0 -55 6 -173 4 -350
-4 -350 -5 0 -1 -9 9 -20 10 -11 22 -20 26 -20 4 0 53 -27 109 -60 56 -33 106
-60 111 -60 5 0 9 -93 9 -219 0 -198 6 -252 24 -222 3 5 44 31 91 57 l85 48 0
212 0 212 105 61 c57 34 109 61 115 61 5 0 10 4 10 9 0 5 14 14 30 21 17 7 30
15 31 19 1 3 2 98 3 210 1 170 -2 208 -14 222 -8 9 -67 44 -130 76 -63 33
-178 94 -255 135 -77 41 -188 101 -247 132 l-108 57 0 -53z"/>
<path d="M5657 7264 c-60 -35 -113 -64 -118 -64 -5 0 -9 -4 -9 -10 0 -5 -4
-10 -10 -10 -5 0 -39 -18 -75 -40 -36 -22 -70 -40 -75 -40 -6 0 -10 -4 -10
-10 0 -5 -5 -10 -10 -10 -6 0 -68 -34 -138 -76 l-127 -76 0 -154 c0 -85 4
-154 8 -154 5 0 97 53 205 117 108 64 216 127 239 140 l43 25 -3 -739 -2 -738
-25 1 c-14 1 -29 2 -35 3 -7 1 -10 228 -9 661 0 570 -2 660 -14 655 -8 -3 -57
-30 -108 -60 -51 -30 -97 -55 -103 -55 -5 0 -11 -4 -13 -8 -1 -4 -59 -40 -128
-80 -69 -40 -168 -98 -220 -130 l-95 -57 -1 -51 c-1 -41 3 -52 20 -60 46 -23
122 -67 137 -80 8 -8 19 -14 23 -14 3 0 24 -12 45 -26 l39 -25 0 -329 -1 -328
-28 -4 c-16 -3 -31 -2 -34 0 -3 3 -5 135 -5 293 0 276 -3 319 -20 319 -4 0
-81 43 -171 96 -90 53 -173 102 -184 108 -11 6 -31 18 -45 27 -64 41 -236 138
-249 141 -12 3 -14 -76 -15 -492 l-1 -495 -32 -3 c-32 -3 -33 -2 -33 32 0 20
0 272 0 561 0 289 0 532 0 540 0 11 17 4 63 -23 130 -80 393 -231 406 -234 11
-2 13 37 13 227 0 127 -1 244 -1 262 -1 34 5 30 -218 159 -17 11 -89 53 -160
94 -70 41 -133 76 -140 78 -7 2 -13 8 -13 13 0 5 -4 9 -9 9 -6 0 -36 16 -68
35 -32 19 -61 35 -65 35 -5 0 -8 -405 -8 -900 l0 -900 -37 -1 c-109 -3 -302
-15 -403 -24 -30 -2 -86 -7 -125 -9 -38 -3 -88 -8 -110 -11 -22 -2 -67 -7
-100 -10 -33 -3 -80 -7 -105 -10 -117 -13 -228 -27 -255 -31 -16 -3 -41 -7
-55 -9 -23 -3 -43 -6 -145 -21 -16 -2 -52 -9 -80 -14 -27 -5 -66 -12 -85 -15
-19 -4 -55 -11 -80 -16 -25 -6 -56 -12 -70 -14 -14 -3 -32 -6 -40 -8 -8 -2
-33 -8 -55 -12 -55 -12 -55 -12 -57 -15 -2 -1 -11 -3 -20 -5 -42 -8 -216 -60
-243 -72 -25 -12 -25 -13 -5 -8 14 3 35 8 48 11 12 2 59 13 105 24 45 10 94
21 110 24 15 3 35 7 45 10 9 3 33 7 52 10 19 3 46 8 60 11 13 2 42 7 65 10 22
3 47 8 55 10 14 4 43 8 123 20 155 22 196 27 225 28 17 1 32 4 32 7 0 3 15 5
33 6 17 0 57 4 87 7 30 4 84 10 120 12 36 3 79 7 96 10 17 2 65 7 105 10 158
12 187 14 264 20 585 41 1531 50 2060 20 33 -2 116 -6 185 -9 69 -3 150 -8
180 -11 52 -4 175 -14 265 -20 79 -6 330 -31 400 -40 17 -2 46 -6 65 -9 19 -3
58 -8 85 -11 28 -4 66 -8 85 -11 19 -2 51 -7 70 -10 19 -3 46 -7 60 -9 14 -2
41 -7 60 -10 33 -6 46 -8 118 -19 58 -9 281 -57 351 -76 40 -12 75 -19 78 -17
6 7 -230 80 -300 92 -12 3 -41 9 -64 15 -24 5 -62 14 -85 20 -47 11 -193 38
-248 46 -19 3 -60 9 -90 14 -30 6 -73 12 -95 15 -22 2 -56 7 -75 9 -121 18
-137 20 -245 31 -82 9 -171 17 -320 30 -27 2 -79 7 -115 10 -35 3 -107 8 -160
11 -52 3 -100 6 -106 7 -9 0 -12 243 -12 954 0 525 -2 956 -4 958 -1 2 -52
-26 -111 -61z"/>
<path d="M4 5121 c-2 -2 -4 -32 -4 -66 l0 -61 58 -24 c148 -60 199 -88 205
-112 12 -42 8 -1632 -4 -1666 -9 -27 -24 -36 -135 -83 l-124 -52 0 -66 0 -66
510 0 510 0 1 30 c0 17 2 43 3 58 3 41 -9 51 -89 80 -170 62 -183 69 -192 107
-7 26 -10 680 -4 711 2 10 419 5 430 -6 5 -5 28 -71 52 -145 23 -74 44 -137
46 -139 5 -6 143 -4 149 2 3 3 5 119 5 259 0 139 -1 327 -1 418 l0 165 -76 0
-76 0 -13 -35 c-7 -19 -27 -81 -44 -137 -19 -59 -40 -108 -50 -115 -13 -10
-69 -13 -207 -12 -104 1 -196 2 -204 3 -13 1 -15 44 -15 339 0 185 3 342 7
348 5 7 118 10 350 8 189 -1 346 -2 350 -3 10 -1 36 -53 42 -82 8 -36 69 -263
72 -268 3 -3 130 -5 174 -2 13 1 15 40 14 293 -1 161 -2 300 -3 308 -1 13
-103 15 -867 15 -476 0 -868 -2 -870 -4z"/>
<path d="M7978 5100 c-2 -14 -1 -44 0 -66 l4 -42 115 -48 c64 -26 123 -56 133
-66 15 -17 17 -78 16 -853 -1 -821 -1 -835 -21 -854 -11 -11 -71 -40 -132 -66
-62 -26 -113 -51 -114 -56 -1 -12 -1 -84 0 -106 1 -17 52 -18 931 -18 l930 0
0 328 c0 304 -1 327 -17 328 -10 0 -52 1 -93 2 l-75 0 -18 -69 c-10 -38 -20
-80 -23 -93 -3 -13 -12 -51 -20 -85 -8 -34 -17 -72 -20 -86 -3 -14 -14 -34
-25 -45 -18 -19 -34 -20 -417 -20 -218 -1 -402 0 -408 2 -7 3 -10 126 -10 381
l1 377 185 0 c102 0 195 -1 208 -3 12 -3 29 -16 36 -31 12 -22 65 -190 77
-241 4 -17 70 -27 131 -21 l37 3 -1 419 -1 419 -78 0 -77 0 -48 -145 c-25 -80
-49 -146 -53 -146 -3 -1 -97 -3 -208 -4 -140 -1 -203 1 -206 9 -2 6 -3 157 -3
336 l1 325 345 1 c190 0 353 -2 363 -4 28 -7 35 -27 93 -247 3 -11 7 -24 8
-30 2 -5 7 -25 11 -42 5 -20 14 -33 24 -34 132 -6 171 -3 172 11 0 8 1 148 2
310 l1 295 -876 0 -877 0 -3 -25z"/>
<path d="M7700 5106 c0 -2 9 -6 20 -9 11 -3 18 -1 14 4 -5 9 -34 13 -34 5z"/>
<path d="M2789 4946 c-2 -2 -29 -6 -59 -10 -123 -13 -258 -65 -374 -142 -50
-33 -158 -139 -204 -199 -21 -28 -106 -193 -123 -240 -14 -39 -37 -121 -44
-160 -5 -22 -10 -47 -11 -55 -7 -37 -16 -167 -16 -242 0 -116 10 -202 37 -323
48 -221 170 -416 330 -530 107 -76 203 -116 365 -151 13 -3 158 -16 185 -16
107 -2 289 31 373 68 28 12 52 20 52 16 0 -4 4 -2 8 4 4 6 27 22 52 34 25 12
47 25 50 29 3 3 22 18 42 34 122 90 233 256 294 437 10 30 19 57 19 60 1 8 18
83 22 100 19 83 25 360 10 475 -15 110 -56 254 -87 311 -11 19 -18 34 -15 34
7 0 -58 104 -67 108 -4 2 -8 9 -8 16 0 15 -111 132 -166 174 -88 68 -225 127
-354 153 -50 10 -303 22 -311 15z m171 -231 c144 -27 272 -162 336 -355 10
-30 19 -62 20 -70 4 -34 16 -95 19 -100 9 -14 19 -182 19 -310 0 -174 -7 -248
-38 -379 -33 -143 -119 -277 -221 -344 -109 -72 -298 -69 -410 7 -96 64 -184
198 -220 336 -39 145 -44 191 -49 420 -5 201 10 330 51 459 84 262 257 381
493 336z"/>
<path d="M4077 4902 c-14 -3 -17 -14 -15 -59 3 -64 -4 -57 127 -112 52 -22 99
-45 105 -51 8 -8 11 -234 11 -765 l0 -755 -25 -17 c-14 -10 -49 -28 -80 -41
-75 -31 -102 -43 -120 -52 -20 -10 -27 -120 -8 -121 7 0 212 -2 456 -2 l442
-2 0 60 0 60 -103 43 c-159 65 -142 19 -142 387 -1 174 2 318 6 320 3 3 42 -6
85 -18 l79 -23 113 -184 c62 -102 116 -192 119 -200 4 -8 33 -57 65 -108 32
-51 58 -95 58 -98 0 -3 8 -17 18 -32 10 -15 38 -57 63 -95 70 -107 77 -109
399 -111 146 -1 270 -1 275 1 6 2 9 20 8 41 -1 20 -2 46 -2 58 -1 17 -18 26
-102 54 -106 35 -179 79 -179 108 0 5 -9 17 -20 27 -11 10 -20 21 -20 25 0 4
-43 75 -95 156 -53 82 -98 157 -102 167 -3 9 -9 17 -14 17 -5 0 -9 4 -9 9 0 5
-40 72 -88 149 l-89 138 62 32 c73 38 153 104 186 152 13 19 26 37 30 40 10 8
56 113 64 145 14 60 15 71 16 145 0 197 -56 312 -195 402 -91 59 -206 92 -361
104 -81 7 -988 12 -1018 6z m968 -261 c53 -23 125 -94 125 -122 0 -11 5 -19
12 -19 6 0 9 -2 6 -5 -3 -3 0 -29 7 -58 22 -95 8 -234 -32 -310 -23 -45 -83
-107 -127 -130 -35 -19 -58 -22 -156 -23 -63 0 -124 2 -135 6 -19 7 -20 16
-20 346 l-1 339 61 5 c91 8 206 -5 260 -29z"/>
<path d="M6010 4835 c-2 -234 0 -497 4 -504 5 -7 153 -8 159 0 3 2 19 65 37
139 33 139 53 199 67 201 4 1 95 2 201 3 l192 1 0 -35 c4 -310 0 -1447 -5
-1469 -6 -27 -16 -33 -126 -77 -65 -26 -120 -50 -120 -53 -1 -3 -2 -30 -3 -58
-2 -47 0 -53 18 -54 12 0 221 -1 466 -2 l445 -1 3 60 3 60 -38 13 c-21 8 -56
22 -78 31 -22 10 -56 23 -75 30 -74 27 -69 -36 -67 803 l2 752 185 1 c102 0
193 -3 202 -8 20 -10 35 -34 42 -69 2 -13 12 -53 21 -89 9 -36 18 -76 21 -90
3 -14 8 -34 11 -45 7 -21 10 -30 12 -43 0 -5 38 -8 84 -7 l82 0 0 283 c1 168
-3 286 -9 289 -5 3 -398 7 -873 7 l-863 1 0 -70z"/>
<path d="M2658 2675 c-2 -2 -24 -5 -50 -8 -142 -17 -273 -148 -307 -306 -9
-43 -8 -154 3 -199 13 -57 59 -136 108 -185 90 -91 202 -126 336 -105 155 24
269 158 275 323 l2 59 -135 1 c-74 0 -141 -1 -148 -3 -15 -5 -13 -72 3 -73 5
-1 54 -1 109 0 l99 1 -7 -31 c-14 -70 -80 -159 -136 -182 -48 -19 -55 -21
-130 -21 -59 -1 -86 4 -125 22 -162 76 -233 271 -161 443 23 56 92 126 153
156 108 52 233 33 338 -52 l53 -43 26 27 27 28 -45 40 c-57 51 -137 91 -198
99 -61 9 -87 11 -90 9z"/>
<path d="M464 2645 c-1 -5 -2 -179 -1 -385 l2 -375 193 0 c163 0 193 2 197 15
5 18 2 47 -7 55 -3 4 -75 7 -160 8 l-153 2 -2 148 c-1 131 0 147 15 148 9 1
82 2 162 3 l145 1 0 35 0 35 -130 2 c-71 1 -145 2 -162 2 l-33 1 1 120 1 120
164 0 164 0 0 35 c0 19 -3 36 -7 36 -5 1 -93 2 -197 3 -121 1 -190 -2 -192 -9z"/>
<path d="M1781 2651 c-7 -5 -12 -98 -13 -295 l-3 -288 -33 46 c-18 25 -38 51
-45 58 -7 7 -32 40 -57 73 -25 33 -53 69 -62 80 -17 20 -158 201 -221 282 -17
23 -36 42 -42 43 -12 0 -15 -759 -3 -761 4 -1 20 -2 36 -3 l27 -1 1 285 c1
157 2 287 3 289 1 3 66 -79 303 -381 53 -68 106 -134 117 -147 12 -13 21 -27
21 -31 0 -5 7 -10 15 -14 15 -5 16 3 16 149 0 11 0 67 0 125 0 58 0 112 0 120
-1 15 -1 162 0 190 0 8 0 53 -1 100 -1 82 -2 85 -24 86 -13 1 -28 -1 -35 -5z"/>
<path d="M3483 2646 c-8 -11 -10 -756 -3 -757 3 -1 92 -2 198 -3 l192 -1 0 37
c0 44 20 40 -187 38 -122 -1 -133 1 -134 17 0 27 0 256 0 273 1 13 26 15 161
15 l160 -1 0 39 0 38 -137 -1 c-76 -1 -149 -1 -163 -1 -27 1 -27 -1 -21 214
l1 27 163 0 162 0 0 35 c0 19 -2 36 -5 36 -29 7 -383 2 -387 -5z"/>
<path d="M4317 2653 c-10 -9 -9 -763 1 -764 4 -1 19 -2 35 -3 l27 -3 1 71 c0
39 0 167 1 284 0 116 4 212 8 212 5 0 19 -15 31 -32 13 -18 28 -38 34 -44 18
-20 39 -47 109 -139 89 -116 149 -189 159 -193 4 -2 7 -8 7 -14 0 -5 19 -33
43 -61 56 -69 64 -77 74 -77 6 0 10 721 4 762 -1 5 -11 6 -23 4 -13 -3 -28 -5
-33 -5 -7 -1 -10 -100 -10 -290 1 -322 6 -303 -65 -211 -19 25 -40 52 -47 60
-55 69 -218 278 -258 330 -28 36 -53 67 -56 70 -3 3 -12 15 -20 27 -9 13 -19
20 -22 16z"/>
<path d="M5336 2650 c-6 -14 0 -747 7 -757 4 -7 18 -11 30 -9 12 3 24 5 27 5
3 1 5 83 5 184 l0 182 175 0 175 0 1 -178 c0 -188 2 -195 47 -193 l22 1 2 383
c1 210 -2 383 -5 383 -32 6 -54 5 -59 -4 -4 -6 -6 -79 -6 -162 l0 -152 -176
-1 -176 -1 0 161 0 162 -33 1 c-18 0 -35 -2 -36 -5z"/>
<path d="M6570 2650 c0 -8 -50 -131 -95 -235 -7 -16 -17 -41 -23 -55 -6 -14
-16 -40 -24 -57 -7 -18 -16 -33 -19 -33 -3 0 -6 -6 -6 -12 0 -7 -32 -87 -71
-178 -39 -91 -72 -171 -74 -179 -2 -9 8 -15 30 -17 37 -3 43 6 102 151 18 44
37 85 42 92 6 7 55 11 156 10 l146 -2 39 -90 c67 -156 69 -159 106 -161 38 -1
38 7 -1 92 -12 27 -23 54 -24 59 -2 9 -92 222 -114 270 -5 11 -21 49 -36 85
-28 70 -41 100 -72 170 -10 25 -22 55 -26 67 -7 21 -36 40 -36 23z m60 -265
c23 -55 48 -114 56 -132 8 -17 14 -33 14 -36 0 -2 -52 -4 -115 -4 -132 1 -125
-8 -76 102 15 33 38 86 51 117 13 32 25 57 26 55 1 -1 21 -47 44 -102z"/>
<path d="M7346 2651 c-2 -3 -4 -176 -3 -383 0 -269 3 -378 11 -379 6 0 21 -2
34 -5 24 -4 23 -17 23 293 1 82 17 90 64 31 14 -18 138 -195 150 -216 6 -9 12
-19 15 -22 3 -3 17 -21 30 -40 13 -19 25 -37 27 -39 5 -7 83 -8 83 -2 0 5
-175 260 -197 286 -14 17 -44 65 -41 66 2 1 19 3 38 5 100 10 157 50 183 127
34 101 -2 207 -85 252 -44 24 -59 26 -188 29 -78 1 -142 0 -144 -3z m297 -90
c40 -23 68 -87 58 -131 -20 -88 -58 -110 -194 -113 l-92 -2 -2 133 -2 134 102
-3 c71 -1 110 -7 130 -18z"/>
<path d="M8230 2603 c0 -29 0 -163 0 -298 0 -135 0 -285 0 -333 l0 -89 28 3
c15 1 30 2 34 3 3 1 5 173 5 384 l-2 382 -32 1 -33 0 0 -53z"/>
<path d="M9022 2618 c-44 -97 -202 -475 -202 -486 0 -7 -4 -12 -10 -12 -5 0
-10 -6 -10 -12 0 -7 -20 -59 -44 -115 -24 -57 -41 -103 -37 -104 66 -10 67 -9
100 71 13 30 34 79 47 108 13 29 24 56 24 61 0 4 69 7 152 7 l153 -1 51 -118
c28 -64 53 -120 56 -122 9 -9 48 -14 62 -9 12 4 12 10 1 32 -7 15 -48 110 -90
212 -81 196 -99 237 -121 284 -8 16 -14 33 -14 37 0 5 -11 32 -24 61 -13 29
-33 74 -45 101 -12 26 -23 47 -25 47 -2 0 -13 -19 -24 -42z m69 -231 c10 -19
69 -166 69 -171 0 -1 -52 -3 -116 -3 -95 0 -114 2 -110 14 3 7 29 70 58 139
l52 126 20 -44 c10 -24 23 -51 27 -61z"/>
</g>
</svg>
