<?xml version="1.0" standalone="no"?>
<!DOCTYPE svg PUBLIC "-//W3C//DTD SVG 20010904//EN"
 "http://www.w3.org/TR/2001/REC-SVG-20010904/DTD/svg10.dtd">
<svg version="1.0" xmlns="http://www.w3.org/2000/svg"
 width="762.000000pt" height="762.000000pt" viewBox="0 0 762.000000 762.000000"
 preserveAspectRatio="xMidYMid meet">
<metadata>
Created by potrace 1.14, written by Peter Selinger 2001-2017
</metadata>
<g transform="translate(0.000000,762.000000) scale(0.100000,-0.100000)"
fill="#000000" stroke="none">
<path d="M2655 6225 l0 -1385 105 -56 c58 -32 125 -68 150 -82 25 -13 72 -39
105 -57 33 -18 87 -47 120 -65 131 -71 203 -110 275 -148 l75 -40 2 -644 c0
-353 1 -645 2 -647 1 -2 7 1 14 6 6 6 57 34 112 63 55 29 125 66 155 83 61 34
188 102 265 142 28 14 57 31 66 38 14 11 16 74 15 621 -1 392 3 613 9 621 6 7
55 37 110 65 91 48 133 71 250 135 22 12 94 50 160 85 66 35 132 72 148 82 15
11 27 16 27 11 0 -4 4 -3 8 2 7 10 102 62 180 100 41 19 53 38 53 80 -1 11 0
52 0 90 1 39 1 77 0 85 0 8 -1 44 0 80 0 36 0 72 0 80 -1 8 0 44 0 80 1 36 1
72 0 80 0 8 -1 44 0 80 0 36 0 72 0 80 -1 8 0 44 0 80 1 36 1 72 0 80 0 8 -1
44 0 80 0 68 0 82 -2 103 -1 6 -1 44 0 82 0 39 1 84 1 100 0 30 -5 33 -182
120 -101 49 -309 150 -463 226 -154 75 -368 179 -475 232 -415 202 -740 361
-855 418 -66 32 -125 59 -132 59 -6 0 -13 3 -15 8 -4 9 -255 132 -271 132 -9
0 -12 -290 -12 -1385z"/>
<path d="M6445 5614 c-33 -18 -87 -48 -120 -65 -33 -17 -73 -39 -90 -48 -113
-61 -214 -116 -300 -161 -55 -29 -113 -62 -130 -74 -16 -12 -32 -20 -35 -19
-3 1 -63 -31 -135 -70 -71 -39 -132 -72 -135 -72 -3 0 -25 -12 -50 -26 -55
-32 -149 -83 -385 -209 -44 -24 -102 -55 -130 -70 -27 -15 -81 -45 -120 -65
-120 -64 -218 -117 -270 -146 -27 -15 -86 -46 -130 -69 l-80 -42 1 -451 c1
-249 2 -456 3 -460 0 -5 31 8 69 28 37 21 101 55 142 77 41 22 98 53 125 68
28 15 91 49 140 75 50 26 104 56 120 65 17 10 75 41 130 70 125 66 201 107
240 130 17 9 71 39 120 65 199 106 330 178 339 186 6 5 18 9 27 9 10 0 19 4
21 8 2 4 24 20 50 34 40 22 47 23 50 9 2 -9 3 -1000 3 -2203 l-1 -2186 301 1
300 2 0 2818 c0 1551 -2 2820 -5 2822 -3 2 -32 -12 -65 -31z"/>
<path d="M1090 2686 c0 -2655 0 -2664 20 -2669 11 -3 20 -2 20 1 0 8 204 6
225 -2 8 -3 15 -2 15 2 0 4 80 6 177 6 l178 -2 -1 1714 c-1 943 1 1714 5 1714
4 0 11 -4 16 -9 6 -4 45 -27 88 -50 124 -66 228 -122 287 -154 30 -16 73 -39
95 -51 22 -11 42 -23 45 -26 3 -3 28 -16 55 -30 28 -13 61 -31 74 -39 13 -9
30 -16 38 -17 8 -2 22 -9 31 -17 10 -8 71 -42 137 -77 66 -35 155 -83 199
-107 43 -23 82 -43 86 -43 4 0 13 -7 20 -15 7 -9 15 -13 18 -11 3 3 17 -3 32
-14 16 -11 31 -20 34 -20 4 0 59 -29 124 -65 64 -36 127 -68 138 -71 l22 -6
-2 777 -1 776 -70 38 c-38 20 -119 63 -180 96 -60 32 -119 64 -130 70 -11 7
-54 30 -95 52 -209 112 -278 149 -315 170 -22 12 -47 26 -55 30 -8 3 -58 30
-110 58 -52 29 -134 73 -182 98 -47 26 -101 55 -120 65 -18 10 -82 45 -143 77
-60 32 -114 61 -120 65 -5 4 -50 29 -100 55 -130 69 -213 114 -270 145 -27 15
-86 47 -130 70 -44 24 -95 52 -113 62 -18 10 -35 18 -37 18 -3 0 -5 -1199 -5
-2664z"/>
<path d="M5642 3954 c-12 -8 -22 -12 -22 -9 0 4 -12 -2 -28 -12 -46 -30 -66
-43 -82 -50 -8 -4 -58 -30 -111 -59 -52 -28 -140 -75 -195 -104 -99 -53 -166
-89 -259 -140 -54 -30 -134 -73 -260 -140 -94 -50 -171 -92 -240 -130 -27 -15
-79 -43 -115 -62 -36 -20 -90 -49 -120 -65 -30 -16 -100 -54 -155 -83 -55 -29
-104 -56 -110 -60 -5 -4 -59 -33 -120 -65 -60 -32 -135 -72 -165 -88 -30 -16
-80 -43 -110 -59 l-56 -30 1 -143 c1 -80 3 -146 5 -148 3 -3 48 -28 100 -56
52 -28 102 -56 110 -61 8 -4 56 -30 105 -56 50 -26 106 -56 125 -67 19 -11 73
-40 120 -65 47 -24 101 -54 120 -65 19 -12 39 -22 45 -23 5 -1 33 -16 60 -33
l51 -31 -1 -1008 c0 -554 1 -1014 3 -1023 3 -15 61 -17 670 -15 l665 1 1 1982
c1 1091 -1 1983 -4 1983 -3 0 -16 -7 -28 -16z"/>
<path d="M1943 1513 l2 -1508 1086 -1 1086 -2 0 917 c0 527 -3 923 -9 934 -5
9 -12 17 -16 17 -5 0 -129 66 -278 146 -148 80 -307 166 -354 191 -205 110
-307 165 -380 206 -19 11 -71 39 -115 62 -227 120 -300 160 -425 229 -36 20
-90 48 -120 63 -30 15 -57 30 -60 33 -3 3 -27 16 -55 30 -27 14 -52 27 -55 30
-3 3 -39 23 -80 44 -118 61 -184 98 -194 107 -36 33 -36 52 -33 -1498z"/>
</g>
</svg>
